<?xml version="1.0" encoding="UTF-8" standalone="no"?>
<!DOCTYPE svg PUBLIC "-//W3C//DTD SVG 1.1//EN" "http://www.w3.org/Graphics/SVG/1.1/DTD/svg11.dtd">
<svg width="100%" height="100%" viewBox="0 0 500 500" version="1.1" xmlns="http://www.w3.org/2000/svg" xmlns:xlink="http://www.w3.org/1999/xlink" xml:space="preserve" xmlns:serif="http://www.serif.com/" style="fill-rule:evenodd;clip-rule:evenodd;stroke-linejoin:round;stroke-miterlimit:2;">
    <g transform="matrix(1,0,0,1,-4437.78,-5007.01)">
        <g id="Mesa-de-trabajo1" serif:id="Mesa de trabajo1" transform="matrix(0.829396,0,0,1.48368,1385.4,-2664.57)">
            <rect x="3680.26" y="5170.65" width="602.818" height="336.979" style="fill:none;"/>
            <clipPath id="_clip1">
                <rect x="3680.26" y="5170.65" width="602.818" height="336.979"/>
            </clipPath>
            <g clip-path="url(#_clip1)">
                <g transform="matrix(1,0,0,1,-21.4471,6.37616)">
                    <g transform="matrix(1.2057,0,0,0.674001,3909.9,5330.17)">
                        <path d="M0,7.724C0,-11.957 0.306,-31.645 -0.165,-51.315C-0.331,-58.269 4.611,-63.893 12.009,-64.05C19.257,-64.204 23.844,-59.142 23.903,-51.214C23.971,-42.25 23.848,-33.286 23.952,-24.323C24.043,-16.468 26.165,-14.061 34.028,-14.026C72.004,-13.859 110.052,-13.046 147.824,-17.689C188.7,-22.714 220.207,-44.112 245.174,-76.087C249.357,-81.444 253.168,-87.137 258.286,-91.714C266.73,-99.264 276.045,-97.065 279.817,-86.323C284.259,-73.678 284.567,-60.322 285.216,-47.157C287.097,-9.004 287.498,29.174 284.11,67.271C283.28,76.607 282.899,86.065 278.689,94.979C274.382,104.097 264.602,106.988 257.053,99.979C252.662,95.903 248.968,91.04 245.192,86.346C229.318,66.61 211.831,48.785 188.464,37.832C174.994,31.518 160.886,27.778 146.074,25.849C109.115,21.034 71.998,21.277 34.87,21.304C26.323,21.31 23.725,23.967 23.694,32.495C23.652,43.991 23.708,55.488 23.637,66.985C23.593,74.095 19.033,78.554 11.966,78.594C4.574,78.635 -0.081,74.146 -0.096,66.766C-0.137,47.086 -0.11,27.405 -0.11,7.724L0,7.724Z" style="fill:rgb(255,153,53);fill-rule:nonzero;"/>
                    </g>
                    <g transform="matrix(1.2057,0,0,0.674001,3883.42,5333.82)">
                        <path d="M0,-2.181C0,30.162 0.048,62.506 -0.034,94.849C-0.055,102.977 -5.542,107.422 -13.401,105.93C-17.798,105.095 -20.879,102.646 -21.498,97.943C-21.801,95.636 -21.936,93.289 -21.931,90.961C-21.813,28.807 -21.671,-33.346 -21.521,-95.499C-21.497,-105.351 -18.741,-109.081 -11.397,-109.34C-3.93,-109.603 -0.045,-106.093 -0.02,-98.628C0.058,-75.052 0.016,-51.476 0.02,-27.9C0.021,-19.327 0.02,-10.754 0.02,-2.181L0,-2.181Z" style="fill:rgb(255,153,53);fill-rule:nonzero;"/>
                    </g>
                    <g transform="matrix(1.2057,0,0,0.674001,3803.25,5334.03)">
                        <path d="M0,-2.2C0,-16.992 -0.005,-31.784 0.007,-46.575C0.008,-48.13 0.012,-49.696 0.183,-51.238C0.816,-56.97 4.664,-60.626 10.059,-60.712C15.761,-60.803 20.136,-57.064 20.541,-51.194C20.875,-46.351 20.633,-41.467 20.632,-36.602C20.629,-9.352 20.595,17.897 20.637,45.146C20.646,50.516 19.041,54.782 13.468,56.406C5.93,58.603 0.231,54.043 0.18,45.68C0.084,29.721 0.153,13.76 0.153,-2.2L0,-2.2" style="fill:rgb(255,153,53);fill-rule:nonzero;"/>
                    </g>
                    <g transform="matrix(1.2057,0,0,0.674001,3750.78,5332.97)">
                        <path d="M0,-0.494C-0.008,-3.209 -0.078,-5.927 0.006,-8.64C0.206,-15.018 4.028,-18.695 10.303,-18.64C16.287,-18.587 19.959,-14.977 20.062,-8.824C20.16,-3.007 20.218,2.817 20.041,8.63C19.862,14.525 16.312,17.86 10.471,18.028C4.439,18.201 0.419,14.741 0.042,8.813C-0.154,5.723 0.008,2.609 0,-0.494" style="fill:rgb(255,153,53);fill-rule:nonzero;"/>
                    </g>
                </g>
            </g>
        </g>
    </g>
</svg>
